<?xml version="1.0" encoding="iso-8859-1"?>
<!-- Generator: Adobe Illustrator 19.0.0, SVG Export Plug-In . SVG Version: 6.00 Build 0)  -->
<svg width="25" height="25" version="1.1" id="Layer_1" xmlns="http://www.w3.org/2000/svg" xmlns:xlink="http://www.w3.org/1999/xlink" x="0px" y="0px" viewBox="0 0 210.415 210.415" style="enable-background:new 0 0 210.415 210.415;" xml:space="preserve">
	<g>
		<g>
			<path d="M159.777,152.144h-24.332l-8.229-16.906c22.863-2.136,38.598-6.556,39.458-6.801c2.039-0.586,3.238-2.694,2.696-4.745
			c-0.116-0.438-11.56-43.927-11.56-65.244v-3.166c0-29.806-23.718-54.179-53.275-55.245C104.359,0.011,104.18,0,104,0h-1.484
			c-0.181,0-0.36,0.011-0.535,0.038C72.601,1.096,48.989,25.187,48.707,54.75c-0.002,0.046-0.002,0.095-0.002,0.141v3.558
			c0,21.317-11.444,64.807-11.56,65.244c-0.542,2.051,0.657,4.159,2.696,4.745c0.866,0.247,16.83,4.726,39.961,6.844l-8.206,16.863
			H50.635c-16.104,0-29.205,13.067-29.205,29.133v25.24c0,2.154,1.745,3.897,3.897,3.897s3.897-1.743,3.897-3.897v-25.24
			c0-11.766,9.606-21.34,21.412-21.34h17.743l14.834,32.965c0.527,1.168,1.593,2.005,2.852,2.234
			c0.234,0.042,0.468,0.065,0.702,0.065c1.024,0,2.019-0.403,2.755-1.142l13.737-13.735l13.737,13.735
			c0.736,0.738,1.731,1.142,2.755,1.142c0.234,0,0.468-0.023,0.702-0.065c1.259-0.228,2.325-1.065,2.852-2.234l14.834-32.965h21.64
			c11.806,0,21.412,9.574,21.412,21.34v25.24c0,2.154,1.745,3.897,3.897,3.897c2.152,0,3.897-1.743,3.897-3.897v-25.24
			C188.982,165.211,175.88,152.144,159.777,152.144z M45.658,121.882c2.85-11.306,10.841-44.685,10.841-63.434v-3.166
			c0-25.937,20.908-47.086,46.759-47.481c25.851,0.396,46.759,21.545,46.759,47.482v3.166c0,18.748,7.991,52.128,10.841,63.433
			c-8.505,2.039-30.86,6.705-57.6,6.705S54.163,123.922,45.658,121.882z M88.003,184.557l-7.728-17.173l15.219,9.684L88.003,184.557
			z M118.513,184.557l-7.491-7.489l15.219-9.684L118.513,184.557z M103.258,172.77l-25.222-16.048l10.128-20.815
			c4.822,0.289,9.853,0.472,15.094,0.472c5.426,0,10.627-0.196,15.601-0.504l10.023,20.591L103.258,172.77z" />
		</g>
	</g>
	<g></g>
	<g></g>
	<g></g>
	<g></g>
	<g></g>
	<g></g>
	<g></g>
	<g></g>
	<g></g>
	<g></g>
	<g></g>
	<g></g>
	<g></g>
	<g></g>
	<g></g>
</svg>